<?xml version="1.0" encoding="UTF-8"?>
<svg id="Layer_1" xmlns="http://www.w3.org/2000/svg" version="1.1" viewBox="0 0 400 400">
  <!-- Generator: Adobe Illustrator 29.3.1, SVG Export Plug-In . SVG Version: 2.1.0 Build 151)  -->
  <defs>
    <style>
      .st0 {
        fill: #623a33;
      }

      .st1 {
        fill: #cb4553;
      }

      .st2 {
        fill: #fff;
      }

      .st3 {
        fill: #403433;
      }

      .st4 {
        fill: #fbc1a4;
      }

      .st5 {
        fill: #f0eef7;
      }

      .st6 {
        fill: #dd5764;
      }

      .st7 {
        fill: #f79d7d;
      }

      .st8 {
        fill: #f7e7d8;
      }

      .st9 {
        fill: #f9b092;
      }
    </style>
  </defs>
  <g>
    <g>
      <path class="st4" d="M233.31,146.49c1.6,4.03-.37,8.59-4.4,10.19-4.03,1.6-8.59-.37-10.19-4.4-1.6-4.03.37-8.59,4.4-10.19,4.03-1.6,8.59.37,10.19,4.4Z"/>
      <path class="st4" d="M241.33,181.42c1.36,3.42-.31,7.28-3.73,8.64-3.42,1.36-7.28-.31-8.64-3.73-1.36-3.42.31-7.28,3.73-8.64,3.42-1.36,7.28.31,8.64,3.73Z"/>
      <path class="st4" d="M233.8,148.41c2.14,12.87,6.64,30.29,7.53,33.02l-12.37,4.91s-9.76-24.73-10.76-36.17l15.6-1.76Z"/>
    </g>
    <path class="st8" d="M235.49,175.73c1.37-.31,2.75-.57,4.12-.88,0,0-4.4-17.94-5.81-26.44h0c-.08-.64-.23-1.29-.49-1.92-1.6-4.03-6.16-6-10.19-4.4-3.33,1.32-5.25,4.68-4.91,8.08h0c.59,6.79,3.13,16.97,5.47,28.23,3.3-.47,8.57-1.94,11.82-2.67Z"/>
    <g>
      <path class="st4" d="M230.22,179.4c2.47-2.72,6.68-2.92,9.4-.45,2.72,2.47,2.92,6.68.45,9.4-2.47,2.72-6.68,2.92-9.4.45-2.72-2.47-2.92-6.68-.45-9.4Z"/>
      <path class="st4" d="M254.39,158.66c1.28-1.41,3.47-1.51,4.88-.23,1.41,1.28,1.51,3.47.23,4.88-1.28,1.41-3.47,1.51-4.88.23-1.41-1.28-1.51-3.47-.23-4.88Z"/>
      <path class="st4" d="M254.39,158.66c-2.69,3.54-8.52,7.25-14.9,12.42-6.15,4.98-9.26,8.33-9.26,8.33l9.85,8.96s17.66-21.97,19.88-25.71l-5.57-4Z"/>
    </g>
    <g>
      <path class="st4" d="M254.39,158.66c1.27-1.38,4.6-6.02,6.02-8.58,1.42-2.56,3.75-4.43,4.48-3.91.73.52-2.94,4.64-1.14,5.43,1.81.79,4.07-.83,6.2-2.44,2.13-1.61,6.97-6.28,7.5-4.9.58,1.49-7.25,7.32-6.63,8.19.43.61,8.6-5,9.71-3.81,1.17,1.26-8.81,5.2-8.83,6.61-.02,1.45,9.04-3.57,9.57-2.01.53,1.56-9.71,4.83-9.94,5.83-.23,1,7.4-1.74,7.32-.39-.09,1.43-7.43,3.12-11.18,3.95-3.75.83-9.35,1.67-10.36,1.8l-2.75-5.77Z"/>
      <path class="st4" d="M256.18,157.61c1.86-.42,3.71.75,4.13,2.61.42,1.86-.75,3.71-2.61,4.13-1.86.42-3.71-.75-4.13-2.61-.42-1.86.75-3.71,2.61-4.13Z"/>
    </g>
  </g>
  <g>
    <polyline class="st3" points="227.41 329.3 217.56 332.98 218.06 338.99 220.18 342.91 226.85 340.7 227.8 336.24 227.41 329.3"/>
    <path class="st3" d="M244.77,343.2c-2.3-1.08-9.42-3.15-14.71-6.95-.58-.42-1.28-.57-1.93-.45,0,0-.36.07-.36.07,0,0-.21,3.22-3.6,4.36-2.28.77-6.11-1.23-6.11-1.23l.45,8.53h27.46"/>
  </g>
  <g>
    <path class="st3" d="M194.54,332.06l-.45,6.94s-1.59,3.11-6.01,3.18c-4.42.07-3.35-3.96-3.35-3.96l1.38-7.4"/>
    <path class="st3" d="M192.25,339.43c-3.32-3.13-6.27-.49-6.27-.49l-1.26-.71c-1.83,2.74-5.34,6.02-5.78,7.63-.84,3.05.65,6.6,5.57,6.6s9.41-2.93,9.93-5.31c.31-1.42-.2-5.28-.35-8.14l-1.83.43Z"/>
  </g>
  <path class="st3" d="M220.24,98.1"/>
  <path class="st3" d="M223.1,111.78"/>
  <g>
    <g>
      <g>
        <g>
          <path class="st4" d="M192.93,141.47l-1.97-19.15,14.6,7.43-.14.7-.41,9.63c-.12,2.75,0,5.54-2.9,6h0c-3.46.56-8.85-1.44-9.18-4.62Z"/>
          <path class="st7" d="M205.16,136.43l.25-5.98.14-.7-14.6-7.43.93,9.03c2.61,3.91,7.76,5.09,13.27,5.07Z"/>
        </g>
        <path class="st4" d="M215.09,114.19c-.07-4.56.21-11.12-1.61-15.9,0,0,0,0,0,0,0,0,0,0,0-.01-.81-2.1-2.02-3.84-3.85-4.92-2-1.44-4.79-2.37-8.97-2.71-8.79-.7-14.5,2.59-18.32,8.31-2.85,4.26-1.63,9.86-1.05,11.88-1.62.15-3.88,1.13-3.37,5.58.79,6.8,5.71,6.93,7.16,7.23,0,0,2.71,12.11,17.65,10.95,14.94-1.16,12.49-12.72,12.38-20.39Z"/>
        <g>
          <path class="st1" d="M198.14,122.11s3.88,1.67,7.1,1.31c0,0,.87,4.27-3.99,3.67-4.87-.6-3.11-4.98-3.11-4.98Z"/>
          <path class="st6" d="M202.17,124.25c-.41-.47-.88-.88-1.37-1.27-1.54-.39-2.66-.87-2.66-.87,0,0-1.76,4.38,3.11,4.98,1.1.14,1.9.01,2.49-.24-.4-.94-.89-1.83-1.56-2.6Z"/>
          <path class="st2" d="M203.63,123.45c-2.77-.17-5.49-1.34-5.49-1.34,0,0-.25.63-.3,1.44,1.87.65,3.8.99,5.77,1.18,0-.43,0-.85.02-1.28Z"/>
        </g>
        <path class="st3" d="M199.86,107.15l-.02-.03c-1.31-.66-5.38-.17-8.12,1.31-.05.75.64,1.39,1.36,1.58s1.49.06,2.22-.08c1.29-.25,2.47-.64,3.71-.95.8-.2,1.25-1.11.84-1.83Z"/>
        <path class="st3" d="M204.73,107.09h0c2.22-.87,4.94-.52,7.45.77.04.73-.59,1.41-1.26,1.65s-1.37.15-2.04.06c-1.13-.16-2.17-.45-3.25-.68-.81-.17-1.3-1.06-.92-1.8Z"/>
      </g>
      <path class="st3" d="M194.88,113.78c-.05,1.08.78,1.99,1.86,2.04,1.08.05,1.99-.78,2.04-1.86.05-1.08-.78-1.99-1.86-2.04-1.08-.05-1.99.78-2.04,1.86Z"/>
      <path class="st3" d="M205.25,113.78c-.05,1.08.78,1.99,1.86,2.04,1.08.05,1.99-.78,2.04-1.86.05-1.08-.78-1.99-1.86-2.04-1.08-.05-1.99.78-2.04,1.86Z"/>
      <path class="st9" d="M214.76,120.32c.09,2.03-1.48,3.75-3.51,3.84-2.03.09-3.75-1.48-3.84-3.51-.09-2.03,1.48-3.75,3.51-3.84,2.03-.09,3.75,1.48,3.84,3.51Z"/>
      <path class="st9" d="M196.1,120.85c.09,2.03-1.48,3.75-3.51,3.84-2.03.09-3.75-1.48-3.84-3.51-.09-2.03,1.48-3.75,3.51-3.84,2.03-.09,3.75,1.48,3.84,3.51Z"/>
      <path class="st9" d="M179.85,113.94c-.52,1.8.22,3.7.94,5.42.22.51.45,1.05.91,1.37.46.31,1.21.27,1.45-.24.23-.49-.11-1.03-.38-1.5-.27-.47-.42-1.17.03-1.46.21-.14.49-.12.71-.24.48-.25.48-.94.35-1.47-.17-.73-.44-1.44-.81-2.11-.36-.65-.92-1.31-1.66-1.3-.77.01-1.33.77-1.55,1.52Z"/>
      <path class="st7" d="M204.81,119.42c.17.1.25.32.16.62-.08.29-.35.63-.75.82-.4.19-.84.19-1.11.07-.28-.12-.41-.33-.38-.52.09-.39.5-.63.88-.83.4-.17.84-.33,1.2-.16Z"/>
    </g>
    <path class="st3" d="M215.77,99.21c4-3.43,6.37-8.23,4.93-13.78-2.17.98-4.22,1.78-6.39,2.76,2.27-2.05,2.77-3.91,2.6-6.82,0,0-26.91,5.77-32.63,10.14-1.69,1.29-2.64,2.49-3.15,3.79l-4.09-5.03s-2.44,6.07,2.33,8.16c-1.02.71-1.98,1.87-2.47,3.78-1.32,5.17,2.53,9.34,2.53,9.34,0,0,1.43-1.03,3.41-.33,1.73.61,3.67,3.7,3.58,6.76l1.59-.21-.21-6.43s2.11-1.56,3.93-6.92c2.85,1.42,6.26,2.08,8.94,1.67l-4.97-4.83c4.5,3.25,8.06,4.5,13.6,4.76,5.55.27,11.44-2.13,14.26-6.91-2.39.13-5.41-.03-7.8.1Z"/>
  </g>
  <path class="st8" d="M168.34,169.58"/>
  <path class="st8" d="M199.46,155.48"/>
  <path class="st8" d="M228.86,144.99c2.24,3.71,1.05,8.54-2.66,10.78-3.71,2.24-8.54,1.05-10.78-2.66-2.24-3.71-1.05-8.54,2.66-10.78,3.71-2.24,8.54-1.05,10.78,2.66"/>
  <path class="st8" d="M162.74,150.98c0-4.34,3.51-7.85,7.85-7.85s7.85,3.52,7.85,7.85-3.51,7.85-7.85,7.85-7.85-3.51-7.85-7.85"/>
  <path class="st8" d="M167.31,144l7.66,9.37,5.16,25.48-3.94,32.24s24.95,9.46,50.59,1.51c0,0-1.34-37.23-3.74-66.42l6.43-4.97"/>
  <path class="st2" d="M191.12,139.46s7.43,7.45,9.5,6.96c2.07-.49,2.98-7.08,2.98-7.08,0,0,4.52.88,5.03,1.68.51.8.78,8.63-.73,10.07-1.51,1.43-6.47-2.59-6.47-2.59,0,0-4.25,4.98-6.62,4.5-2.37-.48-7.8-9.97-8.15-11.1-.35-1.13,4.47-2.44,4.47-2.44Z"/>
  <g>
    <g>
      <path class="st4" d="M176.21,147.05c2.54,3.51,1.76,8.42-1.76,10.96-3.51,2.54-8.42,1.76-10.96-1.76-2.54-3.51-1.76-8.42,1.76-10.96,3.51-2.54,8.42-1.76,10.96,1.76Z"/>
      <path class="st4" d="M192.58,178.95c2.15,2.98,1.49,7.14-1.49,9.29-2.98,2.16-7.14,1.49-9.29-1.49-2.16-2.98-1.49-7.14,1.49-9.29,2.98-2.16,7.14-1.49,9.29,1.49Z"/>
      <path class="st4" d="M177.16,148.79c5.24,11.95,13.89,27.73,15.42,30.15l-10.78,7.8s-15.54-21.57-19.32-32.41l14.68-5.54Z"/>
    </g>
    <path class="st8" d="M185.52,174.86c1.25-.63,2.53-1.23,3.78-1.87,0,0-8.67-16.31-12.14-24.2h0c-.24-.6-.54-1.19-.94-1.74-2.54-3.51-7.45-4.3-10.96-1.76-2.91,2.1-3.94,5.83-2.77,9.04h0c2.24,6.43,7.21,15.68,12.24,26.02,3.08-1.27,7.83-3.99,10.81-5.49Z"/>
    <g>
      <path class="st4" d="M185.25,176.48c3.52-1.07,7.23.91,8.31,4.43,1.07,3.52-.91,7.23-4.43,8.31-3.52,1.07-7.23-.91-8.31-4.43-1.07-3.52.91-7.23,4.43-8.31Z"/>
      <path class="st4" d="M216.62,171.01c1.82-.56,3.75.47,4.31,2.3.56,1.82-.47,3.75-2.3,4.31-1.82.56-3.75-.47-4.31-2.3-.56-1.82.47-3.75,2.3-4.31Z"/>
      <path class="st4" d="M216.62,171.01c-4.13,1.66-11.03,1.87-19.16,3.05-7.83,1.13-12.22,2.42-12.22,2.42l3.88,12.73s26.41-9.85,30.23-11.92l-2.74-6.28Z"/>
    </g>
    <g>
      <polygon class="st0" points="231.04 181.74 218.65 181.74 217.1 158.12 232.59 158.12 231.04 181.74"/>
      <polygon class="st5" points="231.42 175.96 232.18 164.34 217.51 164.34 218.27 175.96 231.42 175.96"/>
      <polygon class="st3" points="233.22 157.66 233.22 156.31 225.71 156.31 225.4 154.3 218.63 154.3 218.31 156.31 216.46 156.31 216.46 157.66 215.67 157.66 215.67 159.38 234.02 159.38 234.02 157.66 233.22 157.66"/>
    </g>
    <g>
      <path class="st4" d="M217.4,170.91c1.9-.08,3.52,1.39,3.6,3.3.08,1.9-1.39,3.52-3.3,3.6s-3.52-1.39-3.6-3.3c-.08-1.9,1.39-3.52,3.3-3.6Z"/>
      <path class="st4" d="M232.59,175.53c-.17-.43-.62-.69-.77-1.13-.18-.53.17-1.11.6-1.45s.98-.56,1.4-.92c.43-.36.73-.98.49-1.48-.25-.53-1-.72-1.18-1.28-.16-.49.19-1,.57-1.34.39-.34.85-.65,1.02-1.14.33-.93-.69-1.88-1.68-1.88-1.11,0-1.9.68-2.91.98-1.29.38-1.6-1.16-2.59-1.9-.47-.35-1.01-.66-1.6-.62-.84.05-1.95,1.73-2.43,2.42-.82,1.16-2.02,2.16-3.1,3.08-.27.23-3.02,1.89-3.03,2.06,0,0-.27,6.87-.27,6.87,3.47.17,6.96.2,10.42-.06,1.32-.1,3.03-.02,4.25-.6.58-.28,1.03-.98.79-1.58Z"/>
    </g>
  </g>
  <path class="st0" d="M228.57,274.88l-19.34,1.69,8.36,61.41s8.37,1.63,15.38-1.08"/>
  <path class="st0" d="M228.57,274.88c.47,5.34-3.48,10.05-8.82,10.52-5.34.47-10.05-3.48-10.52-8.82-.47-5.34,3.48-10.05,8.82-10.52,5.34-.47,10.05,3.48,10.52,8.82"/>
  <g>
    <path class="st0" d="M224.44,205.63h-11.58s-.07,0-.1,0h-23.75s-.03,0-.05,0-.03,0-.05,0h-11.41v11.53h0c.04,6.29,5.15,11.38,11.45,11.38h23.98c.44,0,.87-.02,1.32-.08,5.81-.67,10.1-5.59,10.13-11.3h.05v-11.53Z"/>
    <g>
      <circle class="st0" cx="188.79" cy="276.68" r="9.71" transform="translate(-140.34 214.53) rotate(-45)"/>
      <circle class="st0" cx="188.97" cy="217.09" r="11.45" transform="translate(-96.49 180.36) rotate(-41.63)"/>
      <polygon class="st0" points="198.49 276.68 200.43 217.08 177.52 217.08 179.08 276.68 198.49 276.68"/>
    </g>
    <g>
      <path class="st0" d="M229.29,275.45c.47,5.34-3.48,10.05-8.82,10.52-5.34.47-10.05-3.48-10.52-8.82-.47-5.34,3.48-10.05,8.82-10.52,5.34-.47,10.05,3.48,10.52,8.82Z"/>
      <path class="st0" d="M224.33,215.77c.73,6.28-3.78,11.97-10.06,12.69-6.28.73-11.97-3.78-12.69-10.06-.73-6.28,3.78-11.97,10.06-12.69,6.28-.73,11.97,3.78,12.69,10.06Z"/>
      <polygon class="st0" points="229.26 275.19 224.33 215.77 201.57 218.4 209.98 277.42 229.26 275.19"/>
    </g>
    <path class="st0" d="M224.44,205.63h-11.58s-.07,0-.1,0h-23.75s-.03,0-.05,0-.03,0-.05,0h-11.41v11.53h0c.04,6.29,5.15,11.38,11.45,11.38h23.98c.44,0,.87-.02,1.32-.08,5.81-.67,10.1-5.59,10.13-11.3h.05v-11.53Z"/>
  </g>
  <g>
    <path class="st0" d="M179.04,275.58l2.96,61.91s8.2,2.36,15.41.26l1.03-62.17h-19.41Z"/>
    <circle class="st0" cx="188.75" cy="275.58" r="9.71" transform="translate(-139.58 214.18) rotate(-45)"/>
  </g>
</svg>