<?xml version="1.0" encoding="UTF-8"?>
<svg id="Layer_1" xmlns="http://www.w3.org/2000/svg" version="1.1" viewBox="0 0 400 400">
  <!-- Generator: Adobe Illustrator 29.3.1, SVG Export Plug-In . SVG Version: 2.1.0 Build 151)  -->
  <defs>
    <style>
      .st0 {
        fill: #623a33;
      }

      .st1 {
        fill: #fff;
      }

      .st2 {
        fill: #f9db9e;
      }

      .st3 {
        fill: #403433;
      }

      .st4 {
        fill: #fbc1a4;
      }

      .st5 {
        fill: #fec964;
      }

      .st6 {
        fill: #f79d7d;
      }

      .st7 {
        fill: #f7e7d8;
      }

      .st8 {
        fill: #f9b092;
      }
    </style>
  </defs>
  <g>
    <circle class="st4" cx="198.57" cy="160.56" r="7.85"/>
    <path class="st4" d="M184.56,193.19c-1.22,3.47.61,7.27,4.08,8.48,3.47,1.22,7.27-.61,8.48-4.08s-.61-7.27-4.08-8.48c-3.47-1.22-7.27.61-8.48,4.08Z"/>
    <path class="st4" d="M190.75,159.89c-1.62,12.95-5.41,30.54-6.19,33.3l12.56,4.41s8.74-25.1,9.28-36.57l-15.65-1.13Z"/>
  </g>
  <path class="st7" d="M190.16,187.26c-1.38-.25-2.77-.45-4.15-.71,0,0,3.67-18.1,4.74-26.66h0c.06-.65.18-1.3.41-1.94,1.44-4.09,5.92-6.24,10.01-4.81,3.39,1.19,5.44,4.46,5.23,7.87h0c-.32,6.81-2.44,17.08-4.32,28.43-3.31-.34-8.64-1.59-11.92-2.18Z"/>
  <g>
    <circle class="st4" cx="190.84" cy="195.39" r="6.65" transform="translate(-54.05 316.33) rotate(-71.96)"/>
    <path class="st4" d="M170.59,170.97c-1.34-1.36-3.52-1.37-4.88-.03-1.36,1.34-1.37,3.52-.03,4.88,1.34,1.36,3.52,1.37,4.88.03,1.36-1.34,1.37-3.52.03-4.88Z"/>
    <path class="st4" d="M170.59,170.97c2.84,3.43,8.81,6.9,15.39,11.8,6.34,4.72,9.59,7.95,9.59,7.95l-9.47,9.35s-18.53-21.24-20.91-24.88l5.4-4.22Z"/>
  </g>
  <g>
    <path class="st4" d="M169.47,170.22c-1.76-.74-3.78.08-4.52,1.84-.74,1.76.08,3.78,1.84,4.52,1.76.74,3.78-.08,4.52-1.84.74-1.76-.08-3.78-1.84-4.52Z"/>
    <path class="st4" d="M152.62,168.27c.31-.34.83-.43,1.12-.79.35-.43.23-1.09-.06-1.57-.29-.48-.72-.86-.99-1.35-.27-.49-.34-1.17.06-1.56.42-.41,1.19-.33,1.56-.79.32-.4.17-1-.07-1.46s-.57-.91-.56-1.42c.01-.98,1.3-1.52,2.22-1.18,1.18.43,2.14,1.34,3.11,2.09.58.45,1.98,1.84,2.76,1.44.37-.19.59-.59.68-1,.1-.4.09-.83.14-1.24.14-1.2.76-2.33,1.7-3.1.34-.28.77-.51,1.19-.41.44.12.71.59.75,1.05.04.46-.11.91-.22,1.35-.64,2.47-.43,5.39.62,7.72.83,1.85,2.72,3.36,3.97,4.91l-3.26,5.78c-3.92-1.95-7.6-3.23-10.75-4.68-1.2-.55-2.84-1.07-3.78-2.04-.45-.47-.62-1.28-.19-1.76Z"/>
  </g>
  <g>
    <polygon class="st3" points="160.8 300.29 160.3 306.3 158.18 310.22 151.51 308 150.57 303.54 150.96 296.61 160.8 300.29"/>
    <path class="st3" d="M133.59,310.5c2.3-1.08,9.42-3.15,14.71-6.95.58-.42,1.28-.57,1.93-.45,0,0,.36.07.36.07,0,0,.21,3.22,3.6,4.36,2.28.77,6.11-1.23,6.11-1.23l-.45,8.53h-27.46c-.52-.29-.62-.88-.62-.88,0,0-1.11-2.07,1.82-3.44Z"/>
    <path class="st0" d="M171.85,240.1l-6.36,63.41s-10.37,1.63-17.38-1.08l4.4-64.02,19.34,1.69Z"/>
    <path class="st0" d="M152.51,238.41c-.47,5.34,3.48,10.05,8.82,10.52,5.34.47,10.05-3.48,10.52-8.82.47-5.34-3.48-10.05-8.82-10.52-5.34-.47-10.05,3.48-10.52,8.82Z"/>
  </g>
  <rect class="st5" x="180.77" y="234.88" width="62.45" height="79.95"/>
  <rect class="st2" x="243.2" y="234.88" width="26.86" height="79.95"/>
  <g>
    <g>
      <path class="st7" d="M191.74,156.49c-2.24,3.71-1.05,8.54,2.66,10.78s8.54,1.05,10.78-2.66c2.24-3.71,1.05-8.54-2.66-10.78-3.71-2.24-8.54-1.05-10.78,2.66Z"/>
      <circle class="st7" cx="249.02" cy="162.48" r="7.85"/>
      <path class="st7" d="M247.55,167.04c3.27,22.65,3.27,49.39,3.27,49.39,0,0-26.88-.36-46.92-4.1l.39-19.82-4.81-32.67-6.43-4.97c5.65-5.24,25.48-12.18,31.04-11.3,8.75,1.38,30.47,11.64,31.12,14.1l-7.66,9.37Z"/>
    </g>
    <g>
      <path class="st4" d="M229.52,145.79l1.97-19.15-14.6,7.43.14.7.41,9.63c.12,2.75,0,5.54,2.9,6h0c3.46.56,8.85-1.44,9.18-4.62Z"/>
      <path class="st6" d="M217.29,140.75l-.25-5.98-.14-.7,14.6-7.43-.93,9.03c-2.61,3.92-7.76,5.09-13.27,5.07Z"/>
      <path class="st4" d="M207.17,118.73c.07-4.56-.21-11.12,1.61-15.9,0,0,0,0,0-.01,0,0,0,0,0-.01.81-2.1,2.02-3.84,3.85-4.92,2-1.44,4.79-2.37,8.97-2.71,8.79-.7,14.5,2.59,18.32,8.31,2.85,4.26,1.63,9.86,1.05,11.88,1.62.15,3.88,1.13,3.37,5.58-.79,6.8-5.71,6.93-7.16,7.23,0,0-2.71,12.11-17.64,10.95-14.94-1.16-12.49-12.72-12.38-20.39Z"/>
      <path class="st3" d="M206.68,103.74c-4-3.43-6.37-8.23-4.93-13.78,2.17.98,4.22,1.78,6.39,2.76-2.27-2.05-2.77-3.91-2.6-6.82,0,0,26.91,5.77,32.63,10.14,1.69,1.29,2.64,2.49,3.15,3.79l4.09-5.03s2.44,6.07-2.33,8.16c1.02.71,1.98,1.87,2.47,3.78,1.32,5.17-2.53,9.34-2.53,9.34,0,0-1.43-1.03-3.41-.33-1.73.61-3.67,3.7-3.58,6.76l-1.59-.21.21-6.43s-2.11-1.56-3.93-6.92c-2.85,1.42-6.26,2.08-8.94,1.67l4.97-4.83c-4.5,3.25-8.06,4.5-13.6,4.76-5.55.27-11.44-2.13-14.26-6.91,2.39.13,5.41-.03,7.8.1Z"/>
      <path class="st6" d="M217.45,123.95c.36-.17.8-.01,1.2.16.38.2.79.45.88.83.03.19-.09.4-.38.52-.28.12-.71.12-1.11-.07-.4-.19-.67-.53-.75-.82-.09-.3,0-.52.16-.62Z"/>
      <path class="st3" d="M221.65,111.69l.02-.03c1.31-.66,5.38-.17,8.12,1.31.05.75-.64,1.39-1.36,1.58-.72.2-1.49.06-2.22-.08-1.29-.25-2.47-.64-3.71-.95-.8-.21-1.25-1.11-.84-1.83Z"/>
      <path class="st3" d="M216.77,111.63h0c-2.22-.87-4.94-.52-7.45.77-.04.73.59,1.41,1.26,1.65.66.24,1.37.15,2.04.06,1.13-.16,2.17-.45,3.25-.68.81-.17,1.3-1.06.92-1.8Z"/>
      <path class="st3" d="M227.38,118.32c.05,1.08-.78,1.99-1.86,2.04-1.08.05-1.99-.78-2.04-1.86-.05-1.08.78-1.99,1.86-2.04,1.08-.05,1.99.78,2.04,1.86Z"/>
      <path class="st3" d="M217.02,118.32c.05,1.08-.78,1.99-1.86,2.04-1.08.05-1.99-.78-2.04-1.86-.05-1.08.78-1.99,1.86-2.04,1.08-.05,1.99.78,2.04,1.86Z"/>
      <path class="st8" d="M207.5,124.86c-.09,2.03,1.48,3.75,3.51,3.84,2.03.09,3.75-1.48,3.84-3.51.09-2.03-1.48-3.75-3.51-3.84-2.03-.09-3.75,1.48-3.84,3.51Z"/>
      <path class="st8" d="M226.16,125.39c-.09,2.03,1.48,3.75,3.51,3.84,2.03.09,3.75-1.48,3.84-3.51.09-2.03-1.48-3.75-3.51-3.84-2.03-.09-3.75,1.48-3.84,3.51Z"/>
      <path class="st8" d="M242.41,118.48c.52,1.8-.22,3.7-.94,5.42-.22.51-.45,1.05-.91,1.37-.46.31-1.21.27-1.45-.24-.23-.49.11-1.03.38-1.5.27-.47.42-1.17-.03-1.46-.21-.14-.49-.12-.71-.24-.48-.25-.48-.94-.35-1.47.17-.73.44-1.44.81-2.11.36-.65.92-1.31,1.66-1.3.77.01,1.33.77,1.55,1.52Z"/>
      <path class="st6" d="M217.23,128.28c.19-.34,1.69.22,3.32-.32,1.64-.5,2.54-1.82,2.9-1.66.17.07.18.56-.19,1.22-.36.65-1.14,1.43-2.28,1.79-1.13.36-2.23.18-2.89-.14-.68-.32-.95-.72-.86-.88Z"/>
    </g>
    <path class="st1" d="M229.84,142.71s-7.43,8.25-9.5,7.7c-2.07-.55-2.98-7.84-2.98-7.84,0,0-4.52.97-5.03,1.86-.51.89-.78,9.56.73,11.14,1.51,1.59,6.47-2.87,6.47-2.87,0,0,4.25,5.51,6.62,4.98,2.37-.53,7.8-11.03,8.15-12.28.35-1.25-4.47-2.7-4.47-2.7Z"/>
  </g>
  <g>
    <path class="st0" d="M159.78,229.78c-5.19,1.32-8.33,6.61-7.01,11.8,1.32,5.19,6.61,8.33,11.8,7.01,5.19-1.32,8.33-6.61,7.01-11.8-1.32-5.19-6.61-8.33-11.8-7.01Z"/>
    <path class="st0" d="M205.21,212.68c-6.13,1.56-9.83,7.8-8.27,13.93,1.56,6.13,7.8,9.83,13.93,8.27,6.13-1.56,9.83-7.8,8.27-13.93-1.56-6.13-7.8-9.83-13.93-8.27Z"/>
    <polygon class="st0" points="159.78 229.78 205.21 212.68 210.86 234.88 164.57 248.59 159.78 229.78"/>
  </g>
  <path class="st3" d="M203.9,212.33h11.58s.07,0,.1,0h23.75s.03,0,.05,0,.03,0,.05,0h11.41v11.53h0c-.04,6.29-5.15,11.38-11.45,11.38h-23.98c-.44,0-.87-.02-1.32-.08-5.81-.67-10.1-5.59-10.13-11.3h-.05v-11.53Z"/>
  <path class="st0" d="M203.9,212.33h11.58s.07,0,.1,0h23.75s.03,0,.05,0,.03,0,.05,0h11.41v11.53h0c-.04,6.29-5.15,11.38-11.45,11.38h-23.98c-.44,0-.87-.02-1.32-.08-5.81-.67-10.1-5.59-10.13-11.3h-.05v-11.53Z"/>
  <g>
    <polygon class="st3" points="202.71 300.29 203.75 306.3 202.64 310.22 195.4 308 193.31 303.54 191.92 296.61 202.71 300.29"/>
    <path class="st3" d="M177.12,310.5c2.02-1.08,9.61-3.15,13.92-6.95.48-.42,1.14-.57,1.82-.45,0,0,.37.07.38.07,0,0,1.04,3.22,4.72,4.36,2.48.77,5.79-1.23,5.79-1.23l1.74,8.53h-28.46c-.6-.29-.85-.88-.85-.88,0,0-1.64-2.07.94-3.44Z"/>
    <path class="st0" d="M198.11,237.83l6.18,63.67s-7.76,3.54-15.2,2.53l-10.17-63.34,19.2-2.86Z"/>
    <path class="st0" d="M178.92,240.68c.79,5.3,5.73,8.96,11.03,8.17,5.3-.79,8.96-5.73,8.17-11.03-.79-5.3-5.73-8.96-11.03-8.17-5.3.79-8.96,5.73-8.17,11.03Z"/>
  </g>
  <g>
    <path class="st0" d="M186.12,229.78c-5.19,1.32-8.33,6.61-7.01,11.8,1.32,5.19,6.61,8.33,11.8,7.01,5.19-1.32,8.33-6.61,7.01-11.8-1.32-5.19-6.61-8.33-11.8-7.01Z"/>
    <path class="st0" d="M236.54,212.68c-6.13,1.56-9.83,7.8-8.27,13.93,1.56,6.13,7.8,9.83,13.93,8.27s9.83-7.8,8.27-13.93c-1.56-6.13-7.8-9.83-13.93-8.27Z"/>
    <polygon class="st0" points="186.12 229.78 236.54 212.68 242.2 234.88 190.91 248.59 186.12 229.78"/>
  </g>
  <g>
    <circle class="st4" cx="249.26" cy="162.48" r="7.85" transform="translate(-30.58 61.39) rotate(-13.24)"/>
    <circle class="st4" cx="253.51" cy="199.91" r="6.65"/>
    <path class="st4" d="M241.66,164.45c2.76,12.76,5.01,32.61,5.19,35.47h13.31s-.06-28.58-3.35-39.58l-15.14,4.12Z"/>
  </g>
  <path class="st7" d="M246.13,193.04c-.93-6.51-2.64-20.17-4.47-28.59h0c-.16-.63-.26-1.28-.26-1.96,0-4.34,3.51-7.85,7.85-7.85,3.59,0,6.61,2.41,7.54,5.7h0c1.95,6.53,3.35,16.6,5.05,28.43-4.19,2.5-14.34,4.07-15.73,4.28Z"/>
  <g>
    <path class="st4" d="M251.9,193.78c-3.57.88-5.75,4.49-4.87,8.06.88,3.57,4.49,5.75,8.06,4.87,3.57-.88,5.75-4.49,4.87-8.06-.88-3.57-4.49-5.75-8.06-4.87Z"/>
    <path class="st4" d="M220.21,205.63c-1.85.46-2.98,2.33-2.52,4.18.46,1.85,2.33,2.98,4.18,2.52,1.85-.46,2.98-2.33,2.52-4.18-.46-1.85-2.33-2.98-4.18-2.52Z"/>
    <path class="st4" d="M220.21,205.63c4.4-.68,12.37-4.52,19.96-7.67,7.3-3.04,11.73-4.18,11.73-4.18l3.19,12.92s-29.67,5.55-34.01,5.73l-.86-6.8Z"/>
  </g>
  <g>
    <path class="st4" d="M220.98,205.54c-1.91-.02-3.47,1.51-3.49,3.41-.02,1.91,1.51,3.47,3.41,3.49,1.91.02,3.47-1.51,3.49-3.41.02-1.91-1.51-3.47-3.41-3.49Z"/>
    <path class="st4" d="M220.98,205.54c-3.08-.48-9.09-6.2-10.61-5.94-1.52.26-9.48,5.81-9.08,7.02s2,1.13,1.81,1.89c-.19.75-.17,1.57,1.54,2.08,1.7.51,6.37,2.64,9.16,1.97,2.79-.67,6.32-.23,6.32-.23l.86-6.8Z"/>
  </g>
  <g>
    <path class="st1" d="M207.33,211.34h25.53v3.14h-26.96v-1.71c0-.79.64-1.43,1.43-1.43Z" transform="translate(438.77 425.81) rotate(180)"/>
    <path class="st1" d="M160.56,214.48h47.48c.79,0,1.35-.64,1.26-1.43l-4.01-33.78c-.19-1.58-1.62-2.85-3.19-2.85h-44.62c-1.58,0-2.7,1.28-2.52,2.85l4.01,33.78c.09.79.81,1.43,1.6,1.43Z"/>
    <circle class="st7" cx="180.9" cy="194.54" r="2.85"/>
  </g>
</svg>