<?xml version="1.0" encoding="utf-8"?>
<!-- Generator: Adobe Illustrator 27.5.0, SVG Export Plug-In . SVG Version: 6.00 Build 0)  -->
<svg version="1.1" id="Слой_1" xmlns="http://www.w3.org/2000/svg" xmlns:xlink="http://www.w3.org/1999/xlink" x="0px" y="0px"
	 viewBox="0 0 2666.667 2000" style="enable-background:new 0 0 2666.667 2000;" xml:space="preserve">
<rect x="0.003" style="fill:#FFFFFF;" width="2666.667" height="2000"/>
<g>
	<path style="fill:#E3E9FF;" d="M293.419,1900.014c-70.08-34.324-237.615-82.725-208.433-290.329
		c9.355-66.559,94.854-167.883,157.216-192.958c240.631-96.756,183.238-178.08,79.06-353.646
		c-81.018-187.129-42.045-517.12,142.471-616.01c119.168-63.866,332.605,29.606,457.833-21.347
		c135.114-54.977,148.615-210.074,278.906-275.668c390.882-196.786,961.664-16.977,979.433,426.232
		c32.395,808.039,665.883,499.619,224.876,1334.729L293.419,1900.014z"/>
	<g>
		<g>
			<path style="fill:#F7F9FF;" d="M412.707,1651.191l-3.795-1.873c-1.496-0.738-36.732-18.375-45.725-45.022
				c-4.347-12.88-5.807-25.938-4.111-36.771c1.835-11.72,7.165-19.632,15.01-22.28c15.519-5.236,35.044,12.496,44.452,40.37
				c8.926,26.448-3.773,60.198-4.318,61.622L412.707,1651.191z M373.031,1554.656c-3.096,2.776-5.333,7.67-6.334,14.063
				c-1.507,9.628-0.158,21.387,3.799,33.111c6.328,18.752,28.801,33.216,37.932,38.449c2.976-9.551,9.112-33.496,2.802-52.196
				l3.654-1.233l-3.654,1.233c-7.757-22.983-23.637-39.253-34.677-35.528C375.286,1552.983,374.107,1553.691,373.031,1554.656z"/>
		</g>
		<g>
			<path style="fill:#F7F9FF;" d="M434.38,1696.326l-3.768,1.928c-1.485,0.76-36.669,18.5-63.416,9.809
				c-27.979-9.092-45.931-28.418-40.869-43.994c2.559-7.875,10.411-13.295,22.109-15.26c10.813-1.818,23.887-0.506,36.814,3.695l0,0
				c26.546,8.627,46.043,38.963,46.86,40.25L434.38,1696.326z M336.827,1661.796c-1.529,1.371-2.604,2.934-3.163,4.656
				c-3.601,11.081,12.847,26.776,35.917,34.274c18.822,6.115,43.841-3.279,53.49-7.48c-5.886-8.09-21.434-27.307-40.204-33.406
				c-11.767-3.824-23.541-5.041-33.151-3.426C344.116,1657.355,339.682,1659.236,336.827,1661.796z"/>
		</g>
		<g>
			<path style="fill:#F7F9FF;" d="M468.434,1676.346c-16.154,14.485-37.214,21.746-38.342,22.128l-4.009,1.356l-0.98-4.117
				c-0.386-1.621-9.286-40.008,5.495-63.934c7.144-11.563,16.268-21.02,25.691-26.625c10.195-6.064,19.689-7.01,26.732-2.657
				c7.044,4.352,10.449,13.264,9.588,25.095c-0.796,10.936-5.169,23.326-12.313,34.891l0,0
				C477.09,1667.674,472.954,1672.293,468.434,1676.346z M431.755,1689.574c9.253-3.803,31.607-14.355,41.98-31.146l0,0
				c6.503-10.527,10.474-21.678,11.182-31.396c0.633-8.694-1.536-15.245-5.95-17.973c-4.413-2.726-11.241-1.733-18.734,2.724
				c-8.375,4.982-16.569,13.523-23.072,24.051C426.759,1652.672,429.959,1679.203,431.755,1689.574z"/>
		</g>
		<g>
			<g>
				<path style="fill:#F7F9FF;" d="M482.337,1770.63l-9.101,5.732l-0.206-0.215c-0.288,0.138-0.597,0.285-0.928,0.44l-3.097,1.453
					l-1.811-2.902c-4.462-7.149-8.654-14.006-12.459-20.383c-47.599-79.653-56.056-116.678-56.393-118.214l-0.827-3.774
					l14.944-3.244l0.778,3.789c0.201,0.871,8.98,37.662,55.95,115.93c3.607,6,7.351,12.105,11.125,18.148L482.337,1770.63z"/>
			</g>
		</g>
	</g>
	<path style="fill:#3F964F;" d="M870.503,1700.501c0-72.563-58.825-131.39-131.389-131.39c-57.66,0-106.64,37.145-124.331,88.808
		c-7.541-4.592-16.398-7.238-25.873-7.238c-27.515,0-49.82,22.306-49.82,49.82c0,4.232,0.531,8.339,1.524,12.261
		c-5.131-0.768-10.382-1.168-15.727-1.168c-58.244,0-105.46,47.216-105.46,105.459c0,58.244,45.724,100.086,103.968,100.086
		c24.483,0,247.359-9.756,247.359-9.756S870.503,1756.902,870.503,1700.501z"/>
	<path style="fill:#3F964F;" d="M2452.197,1886.451c0,4.765-0.435,9.413-1.281,13.935h-686.408l43.324-221.53
		c-32.116-20.383-52.902-52.934-52.902-89.601c0-61.724,58.906-111.766,131.566-111.766c72.65,0,131.557,50.042,131.557,111.766
		c0,8.428-1.101,16.635-3.188,24.522c5.221-0.508,10.525-0.783,15.904-0.783c60.283,0,111.49,32.995,129.99,78.876
		c7.878-4.076,17.143-6.427,27.043-6.427c28.77,0,52.087,19.812,52.087,44.251c0,3.759-0.562,7.402-1.599,10.885
		c5.368-0.677,10.854-1.037,16.445-1.037c52.33,0,96.146,30.973,107.434,72.512c4.617-0.877,9.383-1.356,14.264-1.356
		C2418.27,1810.697,2452.197,1844.613,2452.197,1886.451z"/>
	<g>
		<path style="fill:#3F964F;" d="M1972.262,1222.313c-22.637,24.387-66.809,30.233-66.809,30.233s-1.889-48.601,20.748-72.987
			c22.637-24.387,51.298-34.584,64.017-22.778C2002.938,1168.588,1994.899,1197.928,1972.262,1222.313z"/>
		<path style="fill:#3F964F;" d="M1878.52,1229.708c6.053,32.718-15.625,71.647-15.625,71.647s-40.119-27.498-46.172-60.217
			c-6.051-32.719,2.876-61.801,19.941-64.957C1853.729,1173.025,1872.469,1196.99,1878.52,1229.708z"/>
		<path style="fill:#3F964F;" d="M1810.65,1385.604c-2.215,5.342-4.023,8.906-4.494,9.816c-0.053,0.113-0.096,0.197-0.119,0.222
			l-0.006,0.015c0,0-0.015-0.005-0.025-0.023l-0.138-0.078c-0.44-0.304-1.739-1.191-3.652-2.604
			c-10.267-7.574-38.054-30.166-43.483-56.629c-6.662-32.598,1.72-61.851,18.715-65.318c17-3.483,36.193,20.127,42.861,52.711
			c2.981,14.59,0.438,30.541-3.3,43.699C1815.018,1374.508,1812.666,1380.784,1810.65,1385.604z"/>
		<path style="fill:#3F964F;" d="M1928.799,1333.51c-33.221-1.871-65.904-32.154-65.904-32.154s36.219-32.463,69.438-30.592
			c33.221,1.871,59.36,17.434,58.384,34.762C1989.741,1322.851,1962.02,1335.381,1928.799,1333.51z"/>
		<path style="fill:#3F964F;" d="M1871.867,1418.283c-33.234,1.601-68.897-25.109-68.897-25.109s32.637-36.061,65.872-37.662
			c33.234-1.604,60.854,11.15,61.689,28.484C1931.367,1401.33,1905.102,1416.682,1871.867,1418.283z"/>
		<g>
			<path style="fill:#3F964F;" d="M1917.564,1244.35c-0.379,0.32-35.669,31.45-94.234,130.68
				c-4.284,7.275-8.701,14.913-13.237,22.921l-0.485-0.269l-3.576-2.025l0.006-0.015l-0.031-0.009l-0.138-0.078
				c-0.44-0.304-1.739-1.191-3.652-2.604c5.094-8.988,10.017-17.492,14.793-25.537c58.378-98.492,92.911-128.788,94.468-130.134
				L1917.564,1244.35z"/>
		</g>
	</g>
	<g>
		<path style="fill:#3F964F;" d="M488.616,927.094c24.37,21.577,31.103,64.642,31.103,64.642s-47.487,2.964-71.857-18.612
			c-24.37-21.576-35.003-49.373-23.75-62.082C435.367,898.33,464.246,905.517,488.616,927.094z"/>
		<path style="fill:#3F964F;" d="M498.004,1018.601c31.858-6.672,70.428,13.634,70.428,13.634s-25.968,39.867-57.827,46.539
			c-31.858,6.672-60.506-1.391-63.985-18.007C443.141,1044.15,466.146,1025.271,498.004,1018.601z"/>
		<path style="fill:#3F964F;" d="M652.028,1081.389c5.275,2.043,8.802,3.731,9.703,4.17c0.112,0.049,0.196,0.088,0.22,0.111
			l0.015,0.006c0,0-0.004,0.014-0.023,0.024l-0.072,0.139c-0.288,0.438-1.127,1.727-2.463,3.631
			c-7.171,10.214-28.627,37.91-54.382,43.827c-31.727,7.267-60.529-0.257-64.31-16.8c-3.797-16.545,18.852-35.858,50.564-43.129
			c14.199-3.252,29.859-1.131,42.812,2.221C641.075,1077.375,647.268,1079.529,652.028,1081.389z"/>
		<path style="fill:#3F964F;" d="M598.363,967.041c-1.066,32.533-29.931,65.193-29.931,65.193s-32.581-34.674-31.515-67.206
			c1.066-32.531,15.685-58.454,32.653-57.897C586.538,907.687,599.429,934.51,598.363,967.041z"/>
		<path style="fill:#3F964F;" d="M682.58,1020.768c2.332,32.467-22.971,67.959-22.971,67.959s-36.018-31.088-38.35-63.555
			c-2.331-32.465,9.506-59.77,26.439-60.987C664.631,962.97,680.248,988.302,682.58,1020.768z"/>
		<g>
			<path style="fill:#3F964F;" d="M511.426,980.079c0.321,0.364,31.578,34.16,129.97,89.153c7.212,4.021,14.784,8.166,22.72,12.418
				l-0.252,0.48l-1.898,3.545l-0.015-0.006l-0.008,0.029l-0.072,0.139c-0.288,0.438-1.127,1.727-2.463,3.631
				c-8.907-4.775-17.338-9.395-25.316-13.881c-97.666-54.824-128.088-87.901-129.44-89.392L511.426,980.079z"/>
		</g>
	</g>
	<g>
		<path style="fill:#3F964F;" d="M520.333,1328.861c24.104-13.275,60.306-6.402,60.306-6.402s-11.129,38.652-35.232,51.928
			c-24.104,13.275-49.256,13.847-56.18,1.275C482.303,1363.09,496.23,1342.137,520.333,1328.861z"/>
		<path style="fill:#3F964F;" d="M595.862,1347.381c3.738-27.263,30.862-52.205,30.862-52.205s24.367,32.002,20.63,59.264
			c-3.738,27.264-18.295,47.783-32.514,45.834C600.621,1398.324,592.125,1374.642,595.862,1347.381z"/>
		<path style="fill:#3F964F;" d="M689.611,1242.576c3.125-3.62,5.471-5.949,6.077-6.541c0.07-0.076,0.127-0.131,0.152-0.145
			l0.007-0.01c0,0,0.011,0.008,0.013,0.025l0.089,0.096c0.268,0.353,1.056,1.389,2.192,2.992
			c6.096,8.613,22.054,33.563,19.45,55.752c-3.228,27.328-17.4,48.123-31.646,46.436c-14.253-1.677-23.197-25.197-19.977-52.514
			c1.444-12.23,7.581-24.096,13.93-33.459C683.303,1250.156,686.778,1245.838,689.611,1242.576z"/>
		<path style="fill:#3F964F;" d="M583.317,1252.824c25.601,10.09,43.408,42.351,43.408,42.351s-36.865,16.092-62.466,6.002
			c-25.6-10.09-42.088-29.094-36.825-42.447C532.697,1245.378,557.716,1242.734,583.317,1252.824z"/>
		<path style="fill:#3F964F;" d="M650.021,1201.028c26.514,7.366,47.586,37.596,47.586,37.596s-34.986,19.849-61.499,12.481
			c-26.513-7.366-44.892-24.547-41.05-38.377C598.9,1198.901,623.507,1193.662,650.021,1201.028z"/>
		<g>
			<path style="fill:#3F964F;" d="M569.003,1325.751c0.38-0.151,36.17-15.44,107.908-78.163c5.251-4.6,10.702-9.451,16.342-14.563
				l0.311,0.337l2.283,2.519l-0.007,0.01l0.021,0.016l0.089,0.096c0.268,0.353,1.056,1.389,2.192,2.992
				c-6.333,5.736-12.405,11.137-18.243,16.215c-71.399,62.192-106.378,77.021-107.95,77.674L569.003,1325.751z"/>
		</g>
	</g>
	<g>
		<g>
			<path style="fill:#F7F9FF;" d="M2405.473,1553.632l-0.734-3.881c-0.289-1.529-6.909-37.699,7.912-59.357
				c11.625-16.987,27.352-27.963,40.064-27.963c3.826,0,7.219,0.993,10.081,2.952c12.614,8.634,10.349,33.143-5.156,55.8
				c-14.712,21.495-47.004,30.966-48.371,31.358L2405.473,1553.632z M2452.715,1469.629c-10.086,0-24.118,10.211-34.123,24.83
				c-10.431,15.241-8.605,40.113-7.384,49.858c8.791-3.141,30.089-12.003,40.49-27.201c12.785-18.681,16.006-39.651,7.032-45.793
				C2457.088,1470.199,2455.063,1469.629,2452.715,1469.629z"/>
		</g>
		<g>
			<path style="fill:#F7F9FF;" d="M2383.98,1595.119l-3.551-1.727c-1.4-0.682-34.372-16.961-42.9-41.782
				c-8.92-25.964-4.585-50.193,9.87-55.159c1.712-0.588,3.52-0.887,5.375-0.887c13.626,0,28.559,15.764,36.313,38.332
				c8.464,24.635-3.214,56.195-3.716,57.527L2383.98,1595.119z M2352.774,1502.764c-1.058,0-2.078,0.167-3.036,0.496
				c-10.282,3.533-12.756,24.605-5.399,46.012c6,17.468,27.045,30.852,35.593,35.688c2.729-8.929,8.333-31.305,2.348-48.723
				C2375.723,1517.154,2363.038,1502.764,2352.774,1502.764z"/>
		</g>
		<g>
			<path style="fill:#F7F9FF;" d="M2353.092,1670.826l-5.022-0.826l-0.338-0.468c-0.583-0.29-1.399-0.703-2.427-1.248
				c-9.699-5.143-33.049-19.271-40.364-39.286c-4.346-11.92-6.003-24.07-4.666-34.216c1.446-10.978,6.24-18.478,13.498-21.121
				c1.798-0.657,3.714-0.991,5.688-0.991c13.521,0,28.61,15.476,36.696,37.633c3.457,9.484,4.327,21.126,2.584,34.604
				c-0.607,4.809-1.548,9.748-2.794,14.672c-1.042,4.166-2.001,7.089-2.313,8.007L2353.092,1670.826z M2319.46,1579.869
				c-1.129,0-2.213,0.188-3.222,0.555c-4.548,1.656-7.765,7.232-8.827,15.299c-1.188,9.018,0.336,19.958,4.292,30.807
				c6.43,17.595,28.525,30.828,36.266,35.015c0.304-1.063,0.645-2.315,0.997-3.723c1.177-4.65,2.062-9.301,2.634-13.83
				c1.596-12.332,0.854-22.833-2.206-31.224C2342.55,1594.013,2329.681,1579.869,2319.46,1579.869z"/>
		</g>
		<g>
			<path style="fill:#F7F9FF;" d="M2430.352,1610.574c-24.553,0-49.335-16.734-50.378-17.447l-3.261-2.229l2.52-3.04
				c0.993-1.198,24.62-29.374,50.754-31.779c2.763-0.253,5.543-0.383,8.266-0.383c24.062,0,41.738,9.474,42.986,23.038
				c1.4,15.221-18.918,29.114-46.256,31.631C2433.48,1610.504,2431.923,1610.574,2430.352,1610.574z M2387.54,1589.372
				c7.448,4.424,25.572,14.003,42.812,14.003c1.352,0,2.688-0.061,3.971-0.178c22.541-2.074,40.744-12.976,39.748-23.803
				c-0.865-9.406-16.264-16.5-35.818-16.5c-2.503,0-5.062,0.118-7.605,0.352C2412.219,1564.943,2394.255,1582.214,2387.54,1589.372z
				"/>
		</g>
		<g>
			<path style="fill:#F7F9FF;" d="M2391.691,1680.763c-22.567,0-44.885-11.901-45.823-12.407l-3.476-1.876l2.188-3.287
				c0.863-1.296,21.425-31.782,47.164-36.898c5.688-1.131,11.355-1.704,16.845-1.704c19.885,0,34.208,7.416,36.491,18.893
				c2.979,14.992-15.78,30.929-42.708,36.28C2399.036,1680.426,2395.441,1680.763,2391.691,1680.763z M2353.001,1663.832
				c7.058,3.25,23.09,9.732,38.69,9.732c3.28,0,6.402-0.291,9.278-0.862c22.203-4.413,39.17-17.151,37.051-27.816
				c-1.533-7.71-13.636-13.098-29.431-13.098c-5.02,0-10.214,0.526-15.44,1.567
				C2374.998,1636.962,2358.932,1656.014,2353.001,1663.832z"/>
		</g>
		<g>
			<g>
				<path style="fill:#F7F9FF;" d="M2355.487,1672.582l-9.387-3.58l0.046-0.276c-0.263-0.136-0.543-0.283-0.842-0.441l-2.819-1.495
					l1.147-2.977c2.822-7.331,5.583-14.304,8.206-20.729c32.665-80.147,55.539-107.269,56.497-108.383l2.351-2.737l10.798,9.317
					l-2.396,2.729c-0.2,0.236-22.817,27.297-55.028,106.758c-2.456,6.073-4.909,12.29-7.289,18.478L2355.487,1672.582z"/>
			</g>
		</g>
	</g>
	<g>
		<path style="fill:#F7F9FF;" d="M1605.58,306.981c-24.665,0-44.731-20.066-44.731-44.731c0-24.666,20.066-44.731,44.731-44.731
			c24.665,0,44.732,20.065,44.732,44.731C1650.312,286.914,1630.245,306.981,1605.58,306.981z M1605.58,226.773
			c-19.562,0-35.476,15.915-35.476,35.477s15.914,35.477,35.476,35.477c19.562,0,35.476-15.915,35.476-35.477
			S1625.142,226.773,1605.58,226.773z"/>
	</g>
	<path style="fill:#2C2858;" d="M2489.576,1922.017H293.419c-6.076,0-11.001-4.926-11.001-11.002l0,0
		c0-6.076,4.925-11.002,11.001-11.002h2196.157c6.076,0,11.002,4.926,11.002,11.002l0,0
		C2500.578,1917.092,2495.652,1922.017,2489.576,1922.017z"/>
	<g>
		<path style="fill:#F7F9FF;" d="M439.166,1465.243c-24.665,0-44.731-20.066-44.731-44.731c0-24.665,20.066-44.732,44.731-44.732
			c24.665,0,44.731,20.067,44.731,44.732C483.897,1445.177,463.831,1465.243,439.166,1465.243z M439.166,1385.035
			c-19.561,0-35.477,15.914-35.477,35.477s15.915,35.476,35.477,35.476c19.562,0,35.477-15.914,35.477-35.476
			S458.727,1385.035,439.166,1385.035z"/>
	</g>
	
		<ellipse transform="matrix(0.0263 -0.9997 0.9997 0.0263 -995.775 2021.5182)" style="fill:#F7F9FF;" cx="539.802" cy="1521.912" rx="26.861" ry="26.862"/>
	<path style="fill:#F7F9FF;" d="M1536.725,175.475c0,14.835-12.025,26.862-26.861,26.862c-14.836,0-26.862-12.026-26.862-26.862
		c0-14.835,12.026-26.861,26.862-26.861C1524.699,148.614,1536.725,160.64,1536.725,175.475z"/>
	<path style="fill:#F7F9FF;" d="M2410.436,1308.439c0,14.836-12.027,26.862-26.862,26.862s-26.862-12.026-26.862-26.862
		c0-14.834,12.027-26.861,26.862-26.861S2410.436,1293.605,2410.436,1308.439z"/>
	<path style="fill:#8EA5ED;" d="M1778.189,1900.386H686.45c-17.19,0-31.126-13.935-31.126-31.126V395.241
		c0-17.19,13.936-31.125,31.126-31.125h1091.74c17.19,0,31.125,13.935,31.125,31.125V1869.26
		C1809.314,1886.451,1795.379,1900.386,1778.189,1900.386z"/>
	<g>
		
			<rect x="590.49" y="500.958" transform="matrix(0.9322 -0.362 0.362 0.9322 -185.1573 315.7401)" style="fill:#F5A3B7;" width="319.118" height="302.098"/>
		<polygon style="fill:#F291A9;" points="737.908,494.434 737.908,818.037 756.422,812.401 756.422,487.189 		"/>
	</g>
	<g>
		<polygon style="fill:#5F7FCF;" points="1747.766,1833.869 956.596,1833.869 772.133,1701.476 772.133,405.465 1747.766,405.465 		
			"/>
		<polygon style="fill:#FFFFFF;" points="1732.98,1822.229 941.812,1822.229 757.348,1690.93 757.348,405.616 1732.98,405.616 		"/>
		<polygon style="fill:#CDD8FA;" points="941.812,1822.789 757.418,1690.93 879.818,1666.113 		"/>
		<path style="fill:#5F7FCF;" d="M757.418,1690.93l199.178,142.94C956.596,1833.869,806.13,1789.41,757.418,1690.93z"/>
	</g>
	<g>
		<path style="fill:#F37A50;" d="M1532.156,370.23v71.112c0,7.352-5.964,13.316-13.326,13.316H975.789
			c-7.363,0-13.328-5.964-13.328-13.316V370.23c0-30.46,24.701-55.16,55.171-55.16h459.364c14.201,0,27.158,5.367,36.938,14.191
			C1525.123,339.359,1532.156,353.972,1532.156,370.23z"/>
		<path style="fill:#F37A50;" d="M1364.443,334.146h-234.268c0-6.5,0.524-12.864,1.553-19.075
			c9.101-55.624,57.392-98.054,115.587-98.054c58.184,0,106.476,42.43,115.576,98.054
			C1363.918,321.282,1364.443,327.646,1364.443,334.146z"/>
		<path style="fill:#DE623C;" d="M1513.934,329.262l-551.472,98.731V370.23c0-30.46,24.701-55.16,55.171-55.16h114.095
			c9.101-55.624,57.392-98.054,115.587-98.054c58.184,0,106.476,42.43,115.576,98.054h114.105
			C1491.197,315.07,1504.154,320.438,1513.934,329.262z"/>
		<path style="fill:#E3E9FF;" d="M1282.341,280.123c0,19.347-15.684,35.03-35.03,35.03c-19.347,0-35.03-15.683-35.03-35.03
			c0-19.347,15.684-35.03,35.03-35.03C1266.657,245.093,1282.341,260.776,1282.341,280.123z"/>
	</g>
	<g>
		<g>
			<g>
				<path style="fill:#8EA5ED;" d="M989.061,817.758H823.854c-5.231,0-9.472-4.241-9.472-9.472V643.079
					c0-5.231,4.241-9.471,9.472-9.471h165.208c5.231,0,9.472,4.241,9.472,9.471v165.207
					C998.533,813.517,994.292,817.758,989.061,817.758z M833.325,798.814h146.264V652.55H833.325V798.814z"/>
			</g>
			<g>
				<polygon style="fill:#E62552;" points="889.749,806.243 801.229,703.64 832.628,676.55 890.042,743.099 1006.99,610.071 
					1038.136,637.452 				"/>
			</g>
		</g>
		<g>
			<rect x="1075.642" y="646.045" style="fill:#CDD8FA;" width="381.052" height="33.955"/>
			<rect x="1482.711" y="646.045" style="fill:#CDD8FA;" width="205.266" height="33.955"/>
			<rect x="1075.642" y="713.545" style="fill:#CDD8FA;" width="218.663" height="33.956"/>
			<rect x="1075.642" y="781.047" style="fill:#CDD8FA;" width="479.393" height="33.955"/>
			<rect x="1318.853" y="713.545" style="fill:#CDD8FA;" width="369.124" height="33.956"/>
		</g>
	</g>
	<g>
		<g>
			<g>
				<path style="fill:#8EA5ED;" d="M989.061,1194.488H823.854c-5.231,0-9.472-4.24-9.472-9.472v-165.208
					c0-5.232,4.241-9.471,9.472-9.471h165.208c5.231,0,9.472,4.239,9.472,9.471v165.208
					C998.533,1190.248,994.292,1194.488,989.061,1194.488z M833.325,1175.545h146.264V1029.28H833.325V1175.545z"/>
			</g>
			<g>
				<polygon style="fill:#E62552;" points="889.749,1182.975 801.229,1080.371 832.628,1053.281 890.042,1119.83 1006.99,986.802 
					1038.136,1014.184 				"/>
			</g>
		</g>
		<g>
			<rect x="1075.642" y="1018.012" style="fill:#CDD8FA;" width="535.469" height="33.955"/>
			<rect x="1075.642" y="1085.512" style="fill:#CDD8FA;" width="338.208" height="33.955"/>
			<rect x="1075.642" y="1153.014" style="fill:#CDD8FA;" width="133.127" height="33.955"/>
			<rect x="1230.411" y="1153.014" style="fill:#CDD8FA;" width="454.818" height="33.955"/>
			<rect x="1441.348" y="1085.512" style="fill:#CDD8FA;" width="243.881" height="33.955"/>
		</g>
	</g>
	<g>
		<g>
			<g>
				<path style="fill:#8EA5ED;" d="M989.061,1569.563H823.854c-5.231,0-9.472-4.24-9.472-9.472v-165.207
					c0-5.23,4.241-9.472,9.472-9.472h165.208c5.231,0,9.472,4.241,9.472,9.472v165.207
					C998.533,1565.323,994.292,1569.563,989.061,1569.563z M833.325,1550.621h146.264v-146.266H833.325V1550.621z"/>
			</g>
			<g>
				<polygon style="fill:#E62552;" points="889.749,1558.05 801.229,1455.447 832.628,1428.357 890.042,1494.904 1006.99,1361.877 
					1038.136,1389.26 				"/>
			</g>
		</g>
		<g>
			<rect x="1075.642" y="1391.633" style="fill:#CDD8FA;" width="164.304" height="33.955"/>
			<rect x="1258.121" y="1391.633" style="fill:#CDD8FA;" width="425.532" height="33.955"/>
			<rect x="1075.642" y="1459.135" style="fill:#CDD8FA;" width="444.261" height="33.955"/>
			<rect x="1075.642" y="1526.637" style="fill:#CDD8FA;" width="282.469" height="33.955"/>
			<rect x="1377.029" y="1526.637" style="fill:#CDD8FA;" width="219.203" height="33.955"/>
			<rect x="1545.347" y="1459.135" style="fill:#CDD8FA;" width="139.882" height="33.955"/>
		</g>
	</g>
	<g>
		<g>
			<g>
				<g>
					<g>
						<path style="fill:#F37A50;" d="M2121.506,881.701c-2.451-33.584-30.066-32.298-30.066-32.298
							c-19.654-1.005-100.482,37.03-150.313,68.672c-0.966,0.609-1.91,1.223-2.853,1.826
							c-8.422-40.461-42.832-103.863-47.175-137.862c-0.028-0.218-0.064-0.421-0.093-0.637
							c-9.175,9.107-19.864,17.324-28.334,27.071c0.678,1.114,1.099,1.828,1.127,1.924c9.076,31.642,13.42,154.094,42.428,173.788
							c20.338,13.809,180.479-59.727,180.479-59.727S2123.703,911.675,2121.506,881.701z"/>
					</g>
				</g>
			</g>
		</g>
		<g>
			
				<rect x="1558.627" y="736.037" transform="matrix(0.9757 -0.2191 0.2191 0.9757 -128.7211 458.3738)" style="fill:#B0173E;" width="887.736" height="147.133"/>
			<path style="fill:#E62552;" d="M2528.246,767.009l-76.594,17.146l-32.142-143.579l76.595-17.146
				c27.031-6.051,53.852,10.957,59.902,37.989l10.228,45.688C2572.286,734.138,2555.277,760.958,2528.246,767.009z"/>
			
				<rect x="2370.093" y="645.444" transform="matrix(0.9758 -0.2184 0.2184 0.9758 -98.9952 542.7808)" style="fill:#F3C8B9;" width="70.192" height="147.289"/>
			<path style="fill:#F3AE9C;" d="M2452.018,787.563l-3.043,0.682c-2.348,0.525-4.677-0.952-5.202-3.3l-31.917-142.579
				c-0.525-2.347,0.951-4.677,3.299-5.202l3.043-0.682c2.348-0.525,4.678,0.952,5.203,3.3l31.917,142.579
				C2455.844,784.707,2454.365,787.037,2452.018,787.563z"/>
			<path style="fill:#F3AE9C;" d="M2419.171,795.391l-3.044,0.682c-2.348,0.526-4.676-0.951-5.202-3.299l-31.917-142.579
				c-0.525-2.348,0.951-4.677,3.299-5.202l3.044-0.682c2.348-0.526,4.677,0.952,5.202,3.299l31.918,142.58
				C2422.996,792.537,2421.519,794.866,2419.171,795.391z"/>
			<path style="fill:#F3AE9C;" d="M2384.615,802.755l-3.043,0.682c-2.348,0.525-4.678-0.952-5.203-3.299l-31.917-142.58
				c-0.525-2.348,0.952-4.677,3.3-5.203l3.043-0.681c2.348-0.526,4.678,0.951,5.203,3.299l31.917,142.579
				C2388.44,799.9,2386.963,802.229,2384.615,802.755z"/>
			<path style="fill:#F3C8B9;" d="M1588.859,902.485c-8.874-39.645-24.713-69.849-35.375-67.461
				c-0.048,0.011-0.092,0.033-0.141,0.045l-0.002-0.012l-0.047,0.029c-1.048,0.274-2.002,0.866-2.866,1.736l-107.538,65.187
				l-76.637,46.458c-2.591,1.57-1.717,5.531,1.293,5.867l88.614,9.881l125.89,14.037c1.151,0.425,2.265,0.558,3.328,0.37
				l0.104,0.012l-0.006-0.024c0.048-0.01,0.098-0.008,0.146-0.019C1596.285,976.203,1597.735,942.129,1588.859,902.485z"/>
			<path style="fill:#E62552;" d="M1453.603,931.182c2.751,12.289,3.518,23.891,2.559,33.032l-88.614-9.881
				c-3.01-0.336-3.884-4.296-1.293-5.867l76.637-46.458C1447.219,909.684,1451.057,919.807,1453.603,931.182z"/>
		</g>
		<path style="fill:#201D40;" d="M2017.554,893.558c-25.001-32.501-22.501-97.503-3.75-121.254
			c18.751-23.751,19.647-41.649,8.75-65.003c-26.251-56.252,75.003-102.504,120.005-97.504s132.505,25.001,135.005,91.253
			c2.5,66.253,6.251,70.002,36.251,86.254c30.002,16.25,41.252,67.502,30.002,91.253c-11.251,23.751-51.252,56.252-35.002,82.504
			c16.251,26.25,36.252,60.002,13.75,88.752c-22.5,28.751-46.251,83.753-63.752,91.254c-17.5,7.5-71.252,1.25-71.252,1.25
			L2017.554,893.558z"/>
		<g>
			<g>
				<g>
					<path style="fill:#F37A50;" d="M2139.982,808.242l48.49-7.263l-3.863,45.009c0,0-24.557,44.251-47.855,36.63
						c-23.3-7.622-11.938-27.17-11.938-27.17L2139.982,808.242z"/>
				</g>
			</g>
		</g>
		<g>
			<path style="fill:#F37A50;" d="M2209.088,739.737c-1.817,53.727-27.91,87.283-70.106,85.856
				c-42.196-1.427-74.931-46.138-73.113-99.865c1.817-53.727,37.497-96.124,79.694-94.697
				C2187.76,632.459,2210.906,686.01,2209.088,739.737z"/>
			<g>
				<path style="fill:#201D40;" d="M2152.502,725.615c-0.598-0.105-1.163-0.406-1.594-0.896c-6.258-7.11-17.055-5.662-17.162-5.646
					c-1.508,0.215-2.91-0.83-3.13-2.337c-0.22-1.508,1.512-4.518,4.396-4.64c0.566-0.024,12.071-1.573,20.341,7.825
					c1.009,1.145,0.603,4.039-0.544,5.048C2154.152,725.545,2153.3,725.756,2152.502,725.615z"/>
			</g>
			<g>
				<path style="fill:#201D40;" d="M2069.523,731.534c-0.287-0.076-0.566-0.201-0.826-0.375c-1.268-0.85-1.607-2.566-0.758-3.833
					c6.597-9.849,17.47-8.541,17.93-8.48c1.51,0.199,2.578,1.588,2.379,3.101c-0.199,1.509-1.58,2.573-3.088,2.381
					c-0.357-0.042-7.988-0.852-12.628,6.073C2071.857,731.408,2070.633,731.83,2069.523,731.534z"/>
			</g>
			<path style="fill:#DE623C;" d="M2106.098,750.371c-2.971,4.634-5.457,9.294-8.586,12.289c-1.055,1.009-1.113,2.698-0.156,3.801
				c3.949,4.552,13.281,7.058,18.923,8.206c0.823,0.168,1.243-0.952,0.513-1.369c-6.178-3.527-9.119-6.452-10.443-8.118
				c-0.658-0.827-0.867-1.916-0.589-2.937c0.642-2.342,1.897-7.108,2.614-10.987
				C2108.621,749.917,2106.832,749.223,2106.098,750.371z"/>
			<path style="fill:#FFFFFF;" d="M2145.412,786.32c0.871-1.736-0.736-3.669-2.598-3.11c-4.729,1.421-12.578,3.604-20.201,4.938
				c-7.622,1.333-15.746,1.944-20.677,2.212c-1.94,0.106-2.796,2.469-1.388,3.807c4.332,4.115,12.829,10.022,24.514,7.979
				C2136.746,800.102,2142.734,791.661,2145.412,786.32z"/>
			<path style="fill:#201D40;" d="M2237.519,733.957c-49.333,3.363-121.54-44.411-132.173-68.394
				c3.137-32.055,25.799-52.546,56.594-44.274C2192.732,629.562,2250.117,691.853,2237.519,733.957z"/>
			<path style="fill:#201D40;" d="M2117.988,676.863c0,0-25.83,33.009-54.635,43.157c6.412-35.803,10.818-62.895,27.598-73.418
				c16.779-10.522,36.205-14.231,36.205-14.231L2117.988,676.863z"/>
			<g>
				<path style="fill:#F37A50;" d="M2192.24,724.406c-8.225,9.599-8.523,22.838-0.668,29.568c7.856,6.731,20.893,4.405,29.117-5.195
					c8.225-9.6,8.523-22.839,0.667-29.569C2213.5,712.48,2200.465,714.807,2192.24,724.406z"/>
				<g>
					<path style="fill:#DE623C;" d="M2203.096,749.205c-0.402-0.107-0.785-0.308-1.118-0.602c-4.772-4.228-6.271-9.768-4.005-14.817
						c2.318-5.171,7.91-8.461,13.296-7.824c1.517,0.181,2.599,1.555,2.419,3.071s-1.554,2.599-3.07,2.419
						c-2.95-0.35-6.289,1.669-7.602,4.595c-1.26,2.811-0.326,5.801,2.628,8.419c1.143,1.013,1.248,2.759,0.235,3.901
						C2205.161,749.178,2204.074,749.466,2203.096,749.205z"/>
				</g>
			</g>
			<path d="M2090.586,740.771c0.471,4.14-2.503,7.876-6.642,8.348c-4.139,0.47-7.876-2.502-8.347-6.642
				c-0.471-4.14,2.502-7.876,6.641-8.348C2086.378,733.659,2090.115,736.633,2090.586,740.771z"/>
			<path d="M2147.164,733.463c0.503,4.416-2.67,8.404-7.086,8.906c-4.416,0.502-8.402-2.67-8.906-7.086
				c-0.502-4.416,2.671-8.403,7.087-8.906C2142.675,725.875,2146.662,729.047,2147.164,733.463z"/>
		</g>
		<g>
			<path style="fill:#F37A50;" d="M2094.587,1827.38c3.247-32.384-13.462-278.839-13.462-278.839
				c-47.252-216.668-28.691-371.768-28.691-371.768l81.217,5.707l32.009,122.438l-15.183,204.473c0,0,5.699,15.739,8.707,28.326
				c16.307,68.254,0.064,149.823-9.978,204.193c-4.653,25.193-11.892,78.144-12.081,90.18l6.363,20.422l-98.838,48.297
				C2075,1869.639,2093.656,1836.654,2094.587,1827.38z"/>
			<g>
				<path style="fill:#201D40;" d="M2113.807,1851.52c-6.618-19.302-21.207-21.607-21.207-21.607
					c-28.867,40.258-98.343,14.564-96.658,69.479c106.09,0.502,150.17,1.707,150.17,1.707c0.004-12.607-1.754-42.555-4.066-54.296
					l-5.54,0.989L2113.807,1851.52z"/>
			</g>
		</g>
		<g>
			<path style="fill:#F37A50;" d="M2122.051,1192.534l114.414-15.761c43.768,99.023,58.035,271.435,69.916,332.852
				c47.691,79.967,62.836,322.464,62.836,322.464l6.178,24.453l-61.182,38.088c-19.656-15.164,10.898-47.373,12.863-56.485
				c2.953-13.692-92.607-282.711-92.607-282.711l-10.201-25.525c-116.721-192.782-135.873-338.522-135.873-338.522
				L2122.051,1192.534z"/>
			<g>
				<path style="fill:#201D40;" d="M2347.156,1861.26c-6.618-19.301-21.207-21.607-21.207-21.607
					c-28.867,40.259-98.344,14.564-96.658,69.479c106.09,0.502,150.17,1.709,150.17,1.709c0.004-12.609-1.754-42.556-4.066-54.297
					l-5.541,0.988L2347.156,1861.26z"/>
			</g>
		</g>
		<g>
			<g>
				<g>
					<g>
						<path style="fill:#201D40;" d="M2372.71,1468.736c-11.426-38.229-44.398-282.227-145.271-356.635l-173.58,18.291
							c-40.113,64.928-48.783,190.948-53.924,346.057C2161.898,1413.892,2151.615,1547.576,2372.71,1468.736z"/>
					</g>
				</g>
			</g>
		</g>
		<g>
			<g>
				<g>
					<path style="fill:#8EA5ED;" d="M2051.742,1087.561c0-38.014-32.945-94.963-17.152-133.337
						c11.502-30.868,34.1-100.509,58.725-105.211c9.993-1.908,20.96,0.013,34.795-3.813c0,0-7.224,32.238,9.039,33.542
						c31.304,2.51,47.756-37.624,47.756-37.624c16.879-1.613,75.742,15.954,75.705,22.312
						c-0.184,49.795-22.082,130.315-35.312,184.152c-2.454,27.412-0.513,48.676,2.233,64.188
						c5.012,16.168,11.133,25.429,11.172,28.925c0,0-116.035,39.42-189.863-1.224
						C2048.84,1139.471,2051.742,1113.233,2051.742,1087.561z"/>
				</g>
			</g>
		</g>
		<g>
			<path style="fill:#F37A50;" d="M2297.437,1136.689c-13.413,29.106-37.323,25.633-44.179,23.717
				c-7.473-2.09-17.734-1.902-21.621,3.283c-3.998,5.337-6.082,11.288-11.419,9.441c-7.444-2.576-0.198-21.799,15.032-22.578
				c0,0-11.957,0.403-15.9,6.465c-4.32,6.639-7.519,11.57-12.067,10.881c-2.438-0.369-4.638-3.117-3.827-6.433
				c-2.844,2.402-9.313,4.46-9.879-0.065c-1.797-14.339,8.102-32.861,28.736-37.225c-24.609-3.74-26.365,18.156-34.059,18.571
				c-4.626,0.249-5.031-5.458-4.078-9.146c3.058-11.827,12.818-20.806,24.71-23.602c11.892-2.795,30.144,0.557,36.993,10.672
				c0,0,14.38,5.221,20.181-3.578L2297.437,1136.689z"/>
		</g>
		<path style="fill:#F37A50;" d="M2258.182,860.448c0,0,82.676,48.429,122.707,164.512c-35.955,39.86-66.248,10.115-66.248,10.115
			l-80.096-79.145c0,0-23.547-28.921-12.287-64.25C2232.066,860.908,2258.182,860.448,2258.182,860.448z"/>
		<path style="fill:#F37A50;" d="M2266.06,1117.092l49.921-78.053c0,0,13.652-32.469,64.908-14.079
			c2.48,27.557-1.467,53.322-84.051,111.873C2278.935,1133.607,2266.06,1117.092,2266.06,1117.092z"/>
		<path style="fill:#F37A50;" d="M2258.182,860.448c0,0,82.676,48.429,122.707,164.512c-35.955,39.86-69.368,7.032-69.368,7.032
			l-76.976-76.062c0,0-23.547-28.921-12.287-64.25C2232.066,860.908,2258.182,860.448,2258.182,860.448z"/>
		<path id="c_1_" style="fill:#F37A50;" d="M1868.256,759.933c0.789,0.172,1.502,0.5,2.178,0.892
			c0.026-0.135,0.043-0.267,0.072-0.402c1.721-7.927,7.728-13.35,13.413-12.112c0.933,0.205,1.792,0.588,2.581,1.101
			c2.71-4.395,6.924-6.917,10.984-6.034c1.611,0.353,3.016,1.213,4.174,2.43c2.422-4.565,7.001-7.265,11.547-6.274
			c5.686,1.238,9.104,7.728,7.633,14.495c-1.47,6.766-7.271,11.248-12.958,10.009c-1.438-0.313-2.731-0.965-3.837-1.871
			c-2.262,6.702-7.654,11.038-12.795,9.918c-0.934-0.203-1.793-0.587-2.581-1.098c-2.71,4.394-6.925,6.917-10.985,6.032
			c-1.496-0.326-2.816-1.089-3.925-2.17c-1.968,4.149-6,6.652-9.996,5.782c-4.804-1.046-7.69-6.526-6.448-12.242
			C1858.555,762.673,1863.453,758.887,1868.256,759.933z"/>
	</g>
</g>
</svg>
